<svg width="24" height="23" viewBox="0 0 24 23" fill="none" xmlns="http://www.w3.org/2000/svg">
<path fill-rule="evenodd" clip-rule="evenodd" d="M4.07997 7.30595C4.61111 7.18292 5.18884 7.09654 5.80138 7.04808C5.53155 6.49052 5.31399 5.94396 5.15369 5.41963C4.90317 4.60019 4.77612 3.78157 4.84733 3.03433C4.91919 2.28039 5.20472 1.5211 5.85369 0.983282C6.50266 0.44546 7.30935 0.299585 8.07359 0.360617C8.83105 0.421107 9.62525 0.686836 10.3988 1.0728C11.9499 1.84667 13.6211 3.2054 15.0941 4.93917C16.2827 6.33821 17.2054 7.82035 17.7813 9.20378C18.0708 8.7067 18.3653 8.25351 18.6591 7.85329C19.1283 7.2141 19.6347 6.65633 20.1598 6.28007C20.6465 5.93133 21.4125 5.55838 22.2417 5.85644C23.0708 6.1545 23.4149 6.92649 23.5608 7.50264C23.7182 8.12422 23.743 8.87298 23.6865 9.66053C23.5724 11.2513 23.1048 13.2689 22.3351 15.3576C21.5653 17.4463 20.6104 19.2887 19.6625 20.5798C19.1933 21.219 18.6869 21.7768 18.1618 22.153C17.6751 22.5018 16.9091 22.8747 16.0799 22.5766C15.2508 22.2786 14.9067 21.5066 14.7608 20.9304C14.6034 20.3089 14.5786 19.5601 14.6351 18.7726C14.6956 17.9296 14.8553 16.9669 15.1066 15.9373C14.9866 15.9703 14.8649 16.001 14.742 16.0295C13.0501 16.4214 10.8856 16.4415 8.62887 16.0485C6.37209 15.6555 4.3451 14.9054 2.89099 13.9657C2.16576 13.497 1.53566 12.9506 1.10388 12.3329C0.668245 11.7098 0.392813 10.9468 0.539922 10.1229C0.687031 9.29886 1.21005 8.67499 1.83522 8.23657C2.45484 7.80203 3.23617 7.5014 4.07997 7.30595ZM10.1931 7.287C9.57081 7.17863 8.95556 7.10168 8.3553 7.05526C7.87181 6.24319 7.52025 5.46597 7.30954 4.77673C7.1115 4.12895 7.05419 3.61216 7.0894 3.24276C7.12397 2.88005 7.23563 2.74145 7.30123 2.68709C7.36683 2.63272 7.52442 2.54818 7.89209 2.57754C8.26654 2.60744 8.7719 2.75292 9.38342 3.05803C10.6026 3.6663 12.0439 4.80916 13.369 6.36884C14.0942 7.22244 14.6889 8.08821 15.1434 8.90886C13.7827 8.18592 12.0671 7.61336 10.1931 7.287ZM15.8649 12.2662C16.0677 12.5564 16.0786 12.7315 16.0656 12.818C16.0371 12.8625 16.0091 12.8912 15.9865 12.9099C15.9209 12.9643 15.7633 13.0488 15.3956 13.0195C15.0212 12.9896 14.5158 12.8441 13.9043 12.539C12.907 12.0414 11.7611 11.1861 10.6517 10.0376C10.5029 9.88349 10.6429 9.64352 10.8525 9.69345C12.4255 10.0681 13.7578 10.6234 14.6979 11.2309C15.2712 11.6014 15.6514 11.9609 15.8649 12.2662ZM8.19363 10.6578C9.42951 12.1125 10.8049 13.3031 12.1318 14.1059C11.1856 14.1272 10.13 14.0514 9.01992 13.8581C6.98976 13.5046 5.26699 12.8432 4.12404 12.1046C3.55075 11.7341 3.1705 11.3746 2.95706 11.0692C2.74748 10.7694 2.74281 10.5924 2.75768 10.5091C2.77255 10.4258 2.83825 10.261 3.13901 10.05C3.44532 9.83524 3.92713 9.62586 4.59415 9.47136C5.29734 9.30848 6.1454 9.22068 7.08866 9.22638C7.42492 9.70831 7.79427 10.1878 8.19363 10.6578ZM18.1027 13.8362C18.8218 11.8849 19.6885 10.24 20.4822 9.1589C20.718 8.83777 20.9341 8.58467 21.1237 8.39358C21.2425 8.27389 21.4338 8.34265 21.4469 8.50975C21.4678 8.77654 21.4686 9.10759 21.4402 9.50326C21.3446 10.8353 20.938 12.6456 20.2189 14.5969C19.4998 16.5482 18.6331 18.1931 17.8394 19.2742C17.6036 19.5953 17.3876 19.8484 17.1979 20.0395C17.0791 20.1592 16.8878 20.0904 16.8747 19.9233C16.8538 19.6565 16.853 19.3255 16.8814 18.9298C16.977 17.5978 17.3836 15.7875 18.1027 13.8362Z" fill="black"/>
</svg>
