<?xml version="1.0" encoding="UTF-8" standalone="no"?>
<svg
   width="108"
   height="108"
   viewBox="0 0 108 108"
   fill="none"
   version="1.1"
   id="svg1"
   sodipodi:docname="monochrome-icon.svg"
   inkscape:version="1.4.2 (ebf0e940d0, 2025-05-08)"
   inkscape:export-filename="monochrome-icon.png"
   inkscape:export-xdpi="910.22223"
   inkscape:export-ydpi="910.22223"
   xmlns:inkscape="http://www.inkscape.org/namespaces/inkscape"
   xmlns:sodipodi="http://sodipodi.sourceforge.net/DTD/sodipodi-0.dtd"
   xmlns="http://www.w3.org/2000/svg"
   xmlns:svg="http://www.w3.org/2000/svg">
  <defs
     id="defs1" />
  <sodipodi:namedview
     id="namedview1"
     pagecolor="#ffffff"
     bordercolor="#000000"
     borderopacity="0.25"
     inkscape:showpageshadow="2"
     inkscape:pageopacity="0.0"
     inkscape:pagecheckerboard="0"
     inkscape:deskcolor="#d1d1d1"
     inkscape:zoom="1.934631"
     inkscape:cx="-123.79622"
     inkscape:cy="18.349753"
     inkscape:window-width="2560"
     inkscape:window-height="1374"
     inkscape:window-x="0"
     inkscape:window-y="0"
     inkscape:window-maximized="1"
     inkscape:current-layer="svg1" />
  <path
     fill-rule="evenodd"
     clip-rule="evenodd"
     d="m 37.812745,45.990347 c 1.426203,-0.330462 2.977483,-0.562484 4.622276,-0.692659 -0.724533,-1.497639 -1.308727,-2.96574 -1.73915,-4.374091 -0.672695,-2.201082 -1.013857,-4.399912 -0.822608,-6.407069 0.192939,-2.025095 0.959624,-4.064578 2.70221,-5.509204 1.742586,-1.444619 3.90864,-1.836446 5.960766,-1.672512 2.033908,0.16248 4.166426,0.87624 6.243641,1.912961 4.164707,2.078652 8.652247,5.728265 12.607319,10.385287 3.191708,3.757882 5.66933,7.738972 7.215767,11.454954 0.77716,-1.335168 1.567838,-2.552466 2.356824,-3.627482 1.26007,-1.716906 2.61982,-3.215107 4.029691,-4.225755 1.307094,-0.93676 3.363754,-1.938481 5.590206,-1.137892 2.226453,0.800616 3.150317,2.874227 3.541994,4.421762 0.422652,1.669628 0.489386,3.680813 0.337615,5.79621 -0.306641,4.273117 -1.561924,9.692123 -3.629002,15.302603 -2.066798,5.61048 -4.630864,10.559247 -7.176066,14.027185 -1.26007,1.716793 -2.619537,3.21508 -4.02969,4.22567 -1.306813,0.936817 -3.363753,1.938397 -5.590206,1.137865 -2.226171,-0.800532 -3.150317,-2.874086 -3.541994,-4.421649 -0.42237,-1.669769 -0.489386,-3.680813 -0.337614,-5.796324 0.162471,-2.264183 0.591317,-4.849932 1.266264,-7.615611 -0.322409,0.0887 -0.649042,0.171201 -0.979053,0.247791 -4.54301,1.052546 -10.354933,1.106609 -16.414702,0.05068 -6.059769,-1.055641 -11.502568,-3.070064 -15.407069,-5.594427 -1.94735,-1.258945 -3.639269,-2.726539 -4.798646,-4.385608 -1.169753,-1.673711 -1.909332,-3.72305 -1.51432,-5.936353 0.395009,-2.213275 1.799395,-3.889013 3.478047,-5.066665 1.6638,-1.167177 3.761796,-1.974691 6.0275,-2.499669 z m 24.942464,-2.517156 c -3.558044,-4.189346 -7.428248,-7.259158 -10.701868,-8.892998 -1.642034,-0.819538 -2.998996,-1.210287 -4.004461,-1.290621 -0.987247,-0.07887 -1.410405,0.148223 -1.586534,0.294251 -0.176156,0.146027 -0.476011,0.518303 -0.56882,1.492571 -0.09453,0.992231 0.05936,2.380363 0.591121,4.120331 0.565779,1.85133 1.509776,3.938992 2.808,6.120251 1.611792,0.124684 3.263849,0.331392 4.934717,0.622461 5.03203,0.876643 9.638678,2.414548 13.292459,4.356408 -1.220649,-2.20432 -2.817488,-4.529833 -4.764614,-6.822654 z m 6.701884,15.840758 c 0.544575,0.779132 0.57386,1.249934 0.538944,1.482236 -0.07659,0.11911 -0.151772,0.196262 -0.212593,0.246665 -0.175988,0.14614 -0.599202,0.373094 -1.586421,0.294251 -1.005522,-0.08025 -2.362456,-0.471084 -4.00463,-1.290481 -2.677826,-1.33666 -5.754649,-3.634071 -8.733483,-6.718975 -0.399646,-0.413895 -0.02363,-1.058488 0.539225,-0.924371 4.2237,1.006451 7.801172,2.497867 10.325255,4.129791 1.539397,0.995104 2.560406,1.960641 3.133703,2.780884 z M 39.193416,51.806718 c 1.888163,-0.437491 4.165328,-0.673313 6.698139,-0.658023 0.902915,1.294507 1.89464,2.582312 2.967009,3.844945 3.318503,3.907231 7.011621,7.105416 10.574565,9.261755 -2.540696,0.05716 -5.375136,-0.146421 -8.355856,-0.665655 C 45.625997,62.640253 41.00009,60.863765 37.931094,58.879753 36.391725,57.884368 35.370715,56.91883 34.797559,56.098588 34.234822,55.29341 34.222292,54.817822 34.26222,54.594106 c 0.03993,-0.223715 0.216337,-0.666415 1.023937,-1.232982 0.822467,-0.576986 2.116214,-1.139385 3.907259,-1.554406 z M 75.466009,63.53089 c 1.930793,-5.241329 4.258051,-9.659515 6.38933,-12.563421 0.632992,-0.862592 1.213328,-1.54241 1.722425,-2.055702 0.31903,-0.321508 0.832632,-0.13682 0.867829,0.312047 0.05604,0.716592 0.05829,1.605822 -0.01802,2.668617 -0.256801,3.577952 -1.348487,8.440556 -3.27928,13.681884 -1.931076,5.241048 -4.258334,9.659319 -6.38933,12.563252 -0.633274,0.862761 -1.213329,1.542496 -1.722707,2.055816 -0.318748,0.321564 -0.83235,0.136848 -0.867548,-0.311991 -0.05632,-0.716621 -0.05828,-1.60585 0.01802,-2.668815 0.256519,-3.577754 1.348487,-8.440358 3.279281,-13.681687 z"
     fill="white"
     id="path1"
     style="fill:#000000;stroke-width:0.28158" />
</svg>
