<svg width="222" height="214" viewBox="0 0 222 214" fill="none" xmlns="http://www.w3.org/2000/svg">
<path fill-rule="evenodd" clip-rule="evenodd" d="M34.1386 66.3767C39.2036 65.2031 44.7128 64.3791 50.5541 63.9168C47.981 58.5981 45.9063 53.3843 44.3777 48.3827C41.9887 40.5658 40.7771 32.7569 41.4563 25.6287C42.1415 18.4368 44.8643 11.1938 51.0529 6.06337C57.2415 0.932969 64.934 -0.458561 72.2219 0.123631C79.4451 0.700661 87.0185 3.2355 94.3955 6.9173C109.186 14.2994 125.123 27.2606 139.169 43.7995C150.504 57.1452 159.303 71.2836 164.795 84.4805C167.555 79.7388 170.363 75.4157 173.165 71.5979C177.64 65.5005 182.469 60.1798 187.476 56.5906C192.118 53.2638 199.422 49.7063 207.329 52.5495C215.236 55.3928 218.517 62.757 219.908 68.2529C221.409 74.1824 221.646 81.3249 221.107 88.8375C220.018 104.013 215.56 123.258 208.219 143.183C200.879 163.108 191.773 180.683 182.734 192.999C178.259 199.096 173.431 204.417 168.423 208.006C163.782 211.333 156.477 214.89 148.57 212.047C140.664 209.204 137.382 201.84 135.991 196.344C134.491 190.414 134.253 183.272 134.792 175.759C135.369 167.718 136.892 158.535 139.289 148.713C138.144 149.028 136.984 149.321 135.812 149.593C119.678 153.331 99.0376 153.523 77.517 149.773C55.9964 146.024 36.6669 138.87 22.8005 129.905C15.8847 125.434 9.87604 120.222 5.75864 114.33C1.60439 108.386 -1.02214 101.108 0.3807 93.2477C1.78353 85.3875 6.77105 79.4363 12.7326 75.254C18.6414 71.1089 26.0922 68.2411 34.1386 66.3767ZM122.719 57.4373C110.083 42.5593 96.3384 31.6572 84.7125 25.8548C78.881 22.9443 74.0619 21.5566 70.4911 21.2713C66.985 20.9912 65.4822 21.7977 64.8567 22.3163C64.2311 22.8349 63.1662 24.157 62.8366 27.617C62.5009 31.1408 63.0474 36.0706 64.9359 42.2499C66.9452 48.8247 70.2977 56.2388 74.9082 63.9853C80.6323 64.4281 86.4994 65.1622 92.4333 66.1959C110.304 69.3092 126.664 74.7709 139.64 81.6672C135.305 73.8388 129.634 65.58 122.719 57.4373ZM146.52 113.694C148.454 116.461 148.558 118.133 148.434 118.958C148.162 119.381 147.895 119.655 147.679 119.834C147.054 120.353 145.551 121.159 142.045 120.879C138.474 120.594 133.655 119.206 127.823 116.296C118.313 111.549 107.386 103.39 96.807 92.4343C95.3877 90.9644 96.7231 88.6752 98.722 89.1515C113.722 92.7258 126.427 98.0224 135.391 103.818C140.858 107.352 144.484 110.781 146.52 113.694ZM39.0419 87.0329C45.7475 85.4792 53.8346 84.6417 62.8296 84.696C66.0362 89.2933 69.5582 93.8668 73.3666 98.3509C85.1519 112.227 98.2676 123.585 110.921 131.243C101.898 131.446 91.8318 130.723 81.2461 128.879C61.8865 125.507 45.4581 119.198 34.5589 112.152C29.092 108.617 25.466 105.188 23.4305 102.275C21.432 99.4155 21.3875 97.7265 21.5293 96.932C21.6711 96.1375 22.2976 94.5653 25.1657 92.5532C28.0866 90.5041 32.6812 88.5068 39.0419 87.0329ZM167.86 128.67C174.717 110.056 182.982 94.3653 190.551 84.0524C192.799 80.989 194.86 78.5747 196.668 76.7518C197.801 75.61 199.625 76.2659 199.75 77.86C199.949 80.4049 199.957 83.5629 199.686 87.3373C198.774 100.044 194.897 117.313 188.04 135.927C181.182 154.54 172.917 170.231 165.349 180.544C163.1 183.608 161.04 186.022 159.231 187.845C158.099 188.987 156.275 188.331 156.15 186.737C155.95 184.192 155.943 181.034 156.214 177.259C157.125 164.553 161.003 147.284 167.86 128.67Z" fill="white"/>
</svg>
