<svg width="24" height="24" viewBox="0 0 24 24" fill="none" xmlns="http://www.w3.org/2000/svg">
<path d="M10.8036 4.43934C11.3894 3.85356 12.3389 3.85355 12.9247 4.43934C13.5104 5.02513 13.5104 5.97468 12.9247 6.56043L9.04578 10.4384C11.8608 10.3004 14.6762 10.1634 17.4911 10.0253C17.6606 10.017 17.8304 10.0082 17.9999 9.99988C18.5303 9.9735 19.0398 10.1615 19.4149 10.537C19.7898 10.9116 19.9999 11.4433 19.9999 11.9999C19.9998 12.5564 19.7897 13.0882 19.4149 13.4628C19.0399 13.8382 18.5302 14.0263 17.9999 13.9999C17.8303 13.9916 17.6606 13.9828 17.4911 13.9745C14.7715 13.8411 12.0516 13.7074 9.33192 13.5741L12.9247 17.1669C13.5104 17.7526 13.5103 18.7022 12.9247 19.288C12.3389 19.8738 11.3894 19.8738 10.8036 19.288L4.43934 12.9247C3.85355 12.3389 3.85355 11.3884 4.43934 10.8026L10.8036 4.43934Z" fill="black"/>
</svg>
