<svg width="24" height="24" viewBox="0 0 24 24" fill="none" xmlns="http://www.w3.org/2000/svg">
<g clip-path="url(#clip0_2379_9318)">
<path d="M3.75 4.61458C3.75 3.03252 5.03252 1.75 6.61458 1.75H17.3854C18.9675 1.75 20.25 3.03252 20.25 4.61458C20.25 5.56382 19.4805 6.33333 18.5313 6.33333H5.46875C4.51951 6.33333 3.75 5.56382 3.75 4.61458Z" fill="black"/>
<path d="M17.6593 8.17114C19.0527 8.25201 20.1647 9.36396 20.2455 10.7573C20.2481 10.8013 20.2468 10.8502 20.2473 10.9167H16.5833C14.5583 10.9167 12.9167 12.5583 12.9167 14.5833V18.2402C12.5746 18.2486 12.1801 18.25 11.7126 18.25H9.51229C7.55754 18.25 6.57994 18.2497 5.82593 17.8866C5.07753 17.5261 4.47385 16.9225 4.11344 16.1741C3.75033 15.4201 3.75 14.4425 3.75 12.4877C3.75 11.0219 3.74982 10.2889 4.02214 9.72339C4.29244 9.16209 4.74543 8.70911 5.30672 8.4388C5.87218 8.16649 6.60524 8.16667 8.07105 8.16667H17.2977C17.4856 8.16667 17.5799 8.16654 17.6593 8.17114Z" fill="black"/>
<path d="M16.5833 12.75H19.9197C19.7539 13.1142 19.5292 13.4523 19.2501 13.7481C19.2137 13.7867 19.1746 13.8254 19.097 13.903L16.8975 16.1025C15.9001 17.0999 15.3706 17.6248 14.75 17.9161V14.5833C14.75 13.634 15.4716 12.8536 16.3962 12.7598L16.5833 12.75Z" fill="black"/>
</g>
<defs>
<clipPath id="clip0_2379_9318">
<rect width="24" height="24" fill="white"/>
</clipPath>
</defs>
</svg>
