<svg width="20" height="20" viewBox="0 0 20 20" fill="none" xmlns="http://www.w3.org/2000/svg">
<path d="M15.2083 1.66666H4.79167C3.06578 1.66666 1.66667 3.06576 1.66667 4.79166C1.66667 5.82719 2.50614 6.66666 3.54167 6.66666H16.4583C17.4938 6.66666 18.3333 5.82719 18.3333 4.79166C18.3333 3.06576 16.9343 1.66666 15.2083 1.66666Z" fill="black"/>
<path d="M15.8333 9.16666C17.2141 9.16666 18.3333 10.2859 18.3333 11.6667V14.1667C18.3333 16.4678 16.4678 18.3333 14.1667 18.3333H5.83334C3.53216 18.3333 1.66667 16.4678 1.66667 14.1667V11.6667C1.66667 10.2859 2.78596 9.16666 4.16667 9.16666H15.8333Z" fill="black"/>
</svg>
