<svg width="24" height="24" viewBox="0 0 24 24" fill="none" xmlns="http://www.w3.org/2000/svg">
<g clip-path="url(#clip0_3019_190)">
<path d="M3.75 3.61458C3.75 2.03252 5.03252 0.75 6.61458 0.75H17.3854C18.9675 0.75 20.25 2.03252 20.25 3.61458V3.61458C20.25 4.56382 19.4805 5.33333 18.5313 5.33333H5.46875C4.51951 5.33333 3.75 4.56382 3.75 3.61458V3.61458Z" fill="black"/>
<path d="M17.6592 7.17155C19.0527 7.25235 20.1643 8.36401 20.2451 9.75748C20.2477 9.80151 20.2466 9.85016 20.2471 9.91666H16.583C14.5581 9.91684 12.917 11.5587 12.917 13.5837V17.2399C12.5749 17.2484 12.1804 17.2497 11.7129 17.2497H9.51172C7.55754 17.2497 6.58009 17.2502 5.82617 16.8874C5.07786 16.527 4.4737 15.9228 4.11328 15.1745C3.75017 14.4205 3.75 13.4427 3.75 11.488C3.75 10.022 3.75013 9.2888 4.02246 8.7233C4.29275 8.16216 4.7455 7.70941 5.30664 7.43913C5.87213 7.1668 6.60532 7.16666 8.07129 7.16666H17.2979C17.4857 7.16666 17.5798 7.16695 17.6592 7.17155ZM16.583 11.7497H19.9199C19.7541 12.1139 19.5292 12.4518 19.25 12.7477C19.2136 12.7863 19.1744 12.8252 19.0967 12.903L16.8975 15.1022C15.8998 16.0999 15.3707 16.6254 14.75 16.9167V13.5837C14.75 12.6343 15.4719 11.8532 16.3965 11.7594L16.583 11.7497Z" fill="black"/>
</g>
<defs>
<clipPath id="clip0_3019_190">
<rect width="24" height="24" fill="white"/>
</clipPath>
</defs>
</svg>
