<svg width="24" height="24" viewBox="0 0 24 24" fill="none" xmlns="http://www.w3.org/2000/svg">
<g clip-path="url(#clip0_3019_190)">
<path d="M3 4.125C3 2.39911 4.39911 1 6.125 1H17.875C19.6009 1 21 2.39911 21 4.125V4.125C21 5.16053 20.1605 6 19.125 6H4.875C3.83947 6 3 5.16053 3 4.125V4.125Z" fill="black"/>
<path d="M18.1738 8.00488C19.6939 8.0931 20.9069 9.30614 20.9951 10.8262C20.9979 10.8742 20.9965 10.9274 20.9971 11H17C14.7909 11 13 12.7909 13 15V18.9893C12.6268 18.9985 12.1964 19 11.6865 19H9.28613C7.15368 19 6.08721 18.9996 5.26465 18.6035C4.44822 18.2103 3.78966 17.5518 3.39648 16.7354C3.00036 15.9128 3 14.8463 3 12.7139C3 11.1148 2.99981 10.3151 3.29688 9.69824C3.59175 9.08592 4.08592 8.59175 4.69824 8.29688C5.31511 7.99981 6.1148 8 7.71387 8H17.7793C17.9843 8 18.0872 7.99986 18.1738 8.00488ZM17 13H20.6396C20.4588 13.3973 20.2137 13.7662 19.9092 14.0889C19.8695 14.1309 19.8269 14.1731 19.7422 14.2578L17.3428 16.6572C16.2546 17.7454 15.677 18.318 15 18.6357V15C15 13.9643 15.7872 13.113 16.7959 13.0107L17 13Z" fill="black"/>
</g>
<defs>
<clipPath id="clip0_3019_190">
<rect width="24" height="24" fill="white"/>
</clipPath>
</defs>
</svg>
