<svg width="96" height="96" viewBox="0 0 96 96" fill="none" xmlns="http://www.w3.org/2000/svg">
<path d="M12 24.5C12 17.5964 17.5964 12 24.5 12H71.5C78.4036 12 84 17.5964 84 24.5V24.5C84 28.6421 80.6421 32 76.5 32H19.5C15.3579 32 12 28.6421 12 24.5V24.5Z" fill="black"/>
<path d="M71.1162 40C71.937 40 72.3476 40.0004 72.6943 40.0205C78.7752 40.373 83.627 45.2248 83.9795 51.3057C83.9906 51.4978 83.9949 51.7097 83.9971 52H68C59.1634 52 52 59.1634 52 68V83.9629C50.5071 83.9999 48.7852 84 46.7451 84H37.1426C28.6129 84 24.3478 83.9995 21.0576 82.415C17.7922 80.8424 15.1576 78.2078 13.585 74.9424C12.0005 71.6522 12 67.3871 12 58.8574C12 52.46 12.0001 49.2607 13.1885 46.793C14.368 44.344 16.344 42.368 18.793 41.1885C21.2607 40.0001 24.46 40 30.8574 40H71.1162ZM68 60H82.5615C81.8381 61.5895 80.8551 63.0635 79.6367 64.3545C79.4779 64.5228 79.3079 64.6921 78.9688 65.0312L69.373 74.627C65.0162 78.9838 62.7109 81.288 60 82.5586V68C60 63.8574 63.1489 60.452 67.1836 60.043L68 60Z" fill="black"/>
</svg>
