<svg width="24" height="24" viewBox="0 0 24 24" fill="none" xmlns="http://www.w3.org/2000/svg">
<path d="M17.2083 1.66666H6.79167C5.06578 1.66666 3.66667 3.06576 3.66667 4.79166C3.66667 5.82719 4.50614 6.66666 5.54167 6.66666H18.4583C19.4938 6.66666 20.3333 5.82719 20.3333 4.79166C20.3333 3.06576 18.9343 1.66666 17.2083 1.66666Z" fill="black"/>
<path d="M17.8333 9.16667C19.2141 9.16667 20.3333 10.2859 20.3333 11.6667V14.1667C20.3333 16.4678 18.4678 18.3333 16.1667 18.3333H7.83334C5.53216 18.3333 3.66667 16.4678 3.66667 14.1667V11.6667C3.66667 10.2859 4.78596 9.16667 6.16667 9.16667H17.8333Z" fill="black"/>
</svg>
