<svg width="24" height="24" viewBox="0 0 24 24" fill="none" xmlns="http://www.w3.org/2000/svg">
<g clip-path="url(#clip0_2379_9314)">
<path d="M9.95634 3.10461C11.0487 1.89091 12.9513 1.89091 14.0437 3.10461L18.1741 7.69331C19.5516 9.22385 20.7959 10.9403 21.0629 12.982C21.1266 13.4697 21.1667 14.0068 21.1667 14.5835C21.1667 15.7723 20.9951 16.7897 20.8006 17.5618C20.5461 18.5719 19.5917 19.1669 18.5501 19.1669H14.75V14.5835C14.75 13.0647 13.5188 11.8335 12 11.8335C10.4813 11.8335 9.25004 13.0647 9.25004 14.5835V19.1669H5.44999C4.40838 19.1669 3.45396 18.5719 3.1995 17.5618C3.005 16.7897 2.8334 15.7723 2.83337 14.5835C2.83337 14.0068 2.87349 13.4697 2.93722 12.982C3.20415 10.9403 4.44849 9.22385 5.82597 7.69331L9.95634 3.10461Z" fill="black"/>
</g>
<defs>
<clipPath id="clip0_2379_9314">
<rect width="24" height="24" fill="white"/>
</clipPath>
</defs>
</svg>
