<svg width="96" height="96" viewBox="0 0 96 96" fill="none" xmlns="http://www.w3.org/2000/svg">
<path d="M39.0801 17.9105C43.847 12.6139 52.153 12.6139 56.9199 17.9105L74.9424 37.9358C80.9535 44.6149 86.3816 52.105 87.5459 61.0149C87.8239 63.1428 88 65.4837 88 68.0003C88 73.188 87.2521 77.628 86.4033 80.9974C85.293 85.4048 81.1291 88.0002 76.584 88.0003H60V68.0003C60 61.3729 54.6274 56.0003 48 56.0003C41.3726 56.0003 36 61.3729 36 68.0003V88.0003H19.416C14.8709 88.0002 10.707 85.4048 9.59668 80.9974C8.7479 77.628 8.00003 73.188 8 68.0003C8 65.4837 8.17605 63.1428 8.4541 61.0149C9.61844 52.105 15.0465 44.6149 21.0576 37.9358L39.0801 17.9105Z" fill="black"/>
</svg>
