<svg width="24" height="24" viewBox="0 0 24 24" fill="none" xmlns="http://www.w3.org/2000/svg">
<path d="M4.88706 7.11294C4.10565 7.89435 3.66667 8.95416 3.66667 10.0592V16.6667C3.66667 17.5872 4.41286 18.3333 5.33334 18.3333H6.49639C7.27755 18.3333 7.95391 17.7907 8.12336 17.0282L8.95768 13.2738C9.27455 11.8478 10.5393 10.8333 12 10.8333C13.4608 10.8333 14.7254 11.8478 15.0423 13.2738L15.8767 17.0282C16.0461 17.7907 16.7224 18.3333 17.5036 18.3333H18.6667C19.5872 18.3333 20.3333 17.5872 20.3333 16.6667V10.0592C20.3333 8.95416 19.8943 7.89435 19.1129 7.11295L14.357 2.35702C13.0553 1.05527 10.9448 1.05527 9.64299 2.35701L4.88706 7.11294Z" fill="black"/>
</svg>
