<svg width="24" height="24" viewBox="0 0 24 24" fill="none" xmlns="http://www.w3.org/2000/svg">
<path d="M3.46447 8.53553C2.52678 9.47322 2 10.745 2 12.0711V20C2 21.1046 2.89543 22 4 22H5.39566C6.33305 22 7.14468 21.3489 7.34803 20.4339L8.34921 15.9286C8.72946 14.2174 10.2471 13 12 13V13C13.7529 13 15.2705 14.2174 15.6508 15.9286L16.652 20.4339C16.8553 21.3489 17.6669 22 18.6043 22H20C21.1046 22 22 21.1046 22 20V12.0711C22 10.745 21.4732 9.47322 20.5355 8.53554L14.8284 2.82843C13.2663 1.26633 10.7337 1.26633 9.17158 2.82842L3.46447 8.53553Z" fill="black"/>
</svg>
