<svg width="20" height="20" viewBox="0 0 20 20" fill="none" xmlns="http://www.w3.org/2000/svg">
<path d="M2.88706 7.11294C2.10565 7.89435 1.66667 8.95416 1.66667 10.0592V16.6667C1.66667 17.5872 2.41286 18.3333 3.33334 18.3333H4.49639C5.27755 18.3333 5.95391 17.7907 6.12336 17.0282L6.95768 13.2738C7.27455 11.8478 8.53925 10.8333 10 10.8333C11.4608 10.8333 12.7254 11.8478 13.0423 13.2738L13.8767 17.0282C14.0461 17.7907 14.7224 18.3333 15.5036 18.3333H16.6667C17.5872 18.3333 18.3333 17.5872 18.3333 16.6667V10.0592C18.3333 8.95416 17.8943 7.89435 17.1129 7.11295L12.357 2.35702C11.0553 1.05527 8.94476 1.05527 7.64299 2.35701L2.88706 7.11294Z" fill="black"/>
</svg>
