<svg width="24" height="24" viewBox="0 0 24 24" fill="none" xmlns="http://www.w3.org/2000/svg">
<g clip-path="url(#clip0_3019_189)">
<path d="M9.77051 2.47771C10.9622 1.15368 13.0378 1.15368 14.2295 2.47771L18.7354 7.48357C20.2381 9.15325 21.5955 11.0258 21.8867 13.2531C21.9562 13.7851 22 14.371 22 15.0002C22 16.297 21.8128 17.4069 21.6006 18.2492C21.323 19.3511 20.2818 20.0002 19.1455 20.0002H15V15.0002C15 13.3433 13.6569 12.0002 12 12.0002C10.3431 12.0002 9 13.3433 9 15.0002V20.0002H4.85449C3.71818 20.0002 2.677 19.3511 2.39941 18.2492C2.18723 17.4069 2.00003 16.297 2 15.0002C2 14.371 2.04376 13.7851 2.11328 13.2531C2.40448 11.0258 3.76194 9.15325 5.26465 7.48357L9.77051 2.47771Z" fill="black"/>
</g>
<defs>
<clipPath id="clip0_3019_189">
<rect width="24" height="24" fill="white"/>
</clipPath>
</defs>
</svg>
