<svg width="96" height="96" viewBox="0 0 96 96" fill="none" xmlns="http://www.w3.org/2000/svg">
<path d="M13.8579 34.1421C10.1071 37.8929 8 42.9799 8 48.2843V80C8 84.4183 11.5817 88 16 88H24.8397C28.916 88 32.3406 84.9349 32.7907 80.8835L34.6748 63.9266C35.4292 57.1368 41.1684 52 48 52V52C54.8316 52 60.5708 57.1368 61.3252 63.9266L63.2093 80.8835C63.6594 84.9349 67.084 88 71.1603 88H80C84.4183 88 88 84.4183 88 80V48.2843C88 42.9799 85.8929 37.8929 82.1421 34.1421L59.3137 11.3137C53.0653 5.06532 42.9347 5.06531 36.6863 11.3137L13.8579 34.1421Z" fill="black"/>
</svg>
