<svg width="24" height="24" viewBox="0 0 24 24" fill="none" xmlns="http://www.w3.org/2000/svg">
<g clip-path="url(#clip0_3019_189)">
<path d="M9.95638 2.10445C11.0488 0.890906 12.9519 0.890741 14.0443 2.10445L18.1742 6.69332C19.5517 8.22392 20.796 9.94055 21.0628 11.9824C21.1265 12.4699 21.1663 13.0064 21.1663 13.583C21.1663 14.7716 20.9956 15.7894 20.8011 16.5615C20.5467 17.5716 19.5918 18.167 18.5501 18.167H14.7503V13.583C14.7501 12.0645 13.5188 10.8331 12.0003 10.833C10.4817 10.833 9.25052 12.0644 9.25032 13.583V18.167H5.44954C4.40794 18.1669 3.45399 17.5715 3.19954 16.5615C3.00506 15.7894 2.83333 14.7717 2.83333 13.583C2.83335 13.0064 2.87411 12.4699 2.93782 11.9824C3.20472 9.94059 4.448 8.2239 5.82552 6.69332L9.95638 2.10445Z" fill="black"/>
</g>
<defs>
<clipPath id="clip0_3019_189">
<rect width="24" height="24" fill="white"/>
</clipPath>
</defs>
</svg>
