<svg width="24" height="24" viewBox="0 0 24 24" fill="none" xmlns="http://www.w3.org/2000/svg">
<path fill-rule="evenodd" clip-rule="evenodd" d="M5.95996 2.30627C6.34982 1.89316 7.02326 1.89865 7.40527 2.31857L9.33301 4.4385L10.5215 3.15481C11.2219 2.39811 11.5725 2.01965 12.0215 2.02153C12.4703 2.02368 12.8173 2.40481 13.5107 3.16711L14.667 4.4385L16.6318 2.31479C17.0189 1.89694 17.6946 1.89717 18.082 2.31479C19.3668 3.6996 20.2053 5.41981 20.4463 7.26697C20.7065 9.26152 21 11.8091 21 13.1566C21 13.7656 20.9403 14.3134 20.8506 14.7922C20.7087 15.549 20.6372 15.9279 19.9609 16.5735C19.2848 17.2189 18.7378 17.3078 17.6436 17.4844C16.0815 17.7366 13.9761 18 12 18C10.0239 18 7.91847 17.7366 6.35645 17.4844C5.2622 17.3078 4.71517 17.2189 4.03906 16.5735C3.36282 15.9279 3.29127 15.549 3.14941 14.7922C3.0597 14.3134 3.00002 13.7656 3 13.1566C3 11.8166 3.2897 9.28962 3.54883 7.30007C3.79212 5.43233 4.64872 3.69576 5.95996 2.30627ZM7.59961 7.34454C7.48645 7.34453 7.30124 7.34217 7.1377 7.36345C6.94511 7.38855 6.64151 7.46098 6.38086 7.71347C6.12034 7.96593 6.04543 8.26009 6.01953 8.4466C5.99761 8.60493 5.99999 8.78451 6 8.89404V11.6071C5.99999 11.7167 5.99759 11.8963 6.01953 12.0545C6.04547 12.2411 6.12039 12.5353 6.38086 12.7877C6.64148 13.04 6.94516 13.1126 7.1377 13.1377C7.30123 13.159 7.48647 13.1566 7.59961 13.1566H10.4004C10.5135 13.1566 10.6988 13.159 10.8623 13.1377C11.0548 13.1126 11.3585 13.0401 11.6191 12.7877C11.8797 12.5353 11.9545 12.2411 11.9805 12.0545C12.0024 11.8963 12 11.7167 12 11.6071V8.89404C12 8.78451 12.0024 8.60493 11.9805 8.4466C11.9546 8.26009 11.8796 7.96592 11.6191 7.71347C11.3585 7.46102 11.0549 7.38854 10.8623 7.36345C10.6987 7.34218 10.5135 7.34453 10.4004 7.34454H7.59961ZM15 11.2193C14.4478 11.2193 14 11.653 14 12.1879C14.0002 12.7227 14.4479 13.1566 15 13.1566H17C17.5522 13.1566 17.9998 12.7227 18 12.1879C18 11.653 17.5523 11.2193 17 11.2193H15ZM15 7.34454C14.4478 7.34458 14 7.77829 14 8.31321C14.0002 8.84801 14.4479 9.28185 15 9.28189H17C17.5522 9.28189 17.9998 8.84803 18 8.31321C18 7.77827 17.5523 7.34454 17 7.34454H15Z" fill="black"/>
</svg>
