<svg width="96" height="96" viewBox="0 0 96 96" fill="none" xmlns="http://www.w3.org/2000/svg">
<path fill-rule="evenodd" clip-rule="evenodd" d="M23.8398 16.2647C25.3993 14.5588 28.093 14.5815 29.6211 16.3155L37.332 25.0694L42.0859 19.7686C44.8876 16.6439 46.2898 15.0812 48.0859 15.0889C49.8812 15.0978 51.2692 16.6716 54.043 19.8194L58.668 25.0694L66.5273 16.2999C68.0757 14.5744 70.7783 14.5754 72.3281 16.2999C77.4671 22.0182 80.8211 29.1216 81.7852 36.7491C82.826 44.9853 84 55.5052 84 61.0694C83.9999 63.5842 83.7612 65.8463 83.4023 67.8233C82.8349 70.9484 82.5487 72.5128 79.8438 75.1788C77.1393 77.844 74.9512 78.2112 70.5742 78.9405C64.3261 79.9815 55.9045 81.0694 48 81.0694C40.0955 81.0694 31.6739 79.9815 25.4258 78.9405C21.0488 78.2112 18.8607 77.844 16.1562 75.1788C13.4513 72.5128 13.1651 70.9484 12.5977 67.8233C12.2388 65.8463 12.0001 63.5842 12 61.0694C12 55.536 13.1588 45.1013 14.1953 36.8858C15.1685 29.1733 18.5949 22.0023 23.8398 16.2647ZM30.3984 37.0694C29.9458 37.0694 29.205 37.0596 28.5508 37.1475C27.7804 37.2511 26.566 37.5502 25.5234 38.5928C24.4813 39.6353 24.1817 40.85 24.0781 41.6202C23.9905 42.274 24 43.0155 24 43.4678V54.6709C24 55.1236 23.9904 55.8651 24.0781 56.5186C24.1819 57.2889 24.4816 58.5039 25.5234 59.5459C26.5659 60.588 27.7806 60.8877 28.5508 60.9913C29.2049 61.0791 29.9459 61.0694 30.3984 61.0694H41.6016C42.0541 61.0694 42.795 61.0791 43.4492 60.9913C44.2194 60.8877 45.4339 60.5882 46.4766 59.5459C47.5187 58.5038 47.8181 57.289 47.9219 56.5186C48.0096 55.8651 48 55.1236 48 54.6709V43.4678C48 43.0155 48.0095 42.274 47.9219 41.6202C47.8183 40.85 47.5186 39.6353 46.4766 38.5928C45.4339 37.5504 44.2195 37.2511 43.4492 37.1475C42.795 37.0597 42.0541 37.0694 41.6016 37.0694H30.3984ZM60 53.0694C57.7911 53.0696 56.0002 54.8605 56 57.0694C56.0008 59.2777 57.7915 61.0692 60 61.0694H68C70.2086 61.0694 71.9992 59.2778 72 57.0694C71.9998 54.8604 70.209 53.0694 68 53.0694H60ZM60 37.0694C57.7911 37.0696 56.0002 38.8605 56 41.0694C56.0008 43.2777 57.7915 45.0692 60 45.0694H68C70.2086 45.0694 71.9992 43.2778 72 41.0694C71.9998 38.8604 70.209 37.0694 68 37.0694H60Z" fill="black"/>
</svg>
