<svg width="24" height="24" viewBox="0 0 24 24" fill="none" xmlns="http://www.w3.org/2000/svg">
<path d="M12.6079 0.744629C18.1307 0.744629 22.6078 5.2219 22.6079 10.7446V11.9604C22.6079 14.1362 21.9128 16.1493 20.7327 17.7905C19.9617 18.8628 18.379 18.4841 17.4019 17.5955C16.0485 16.3647 14.1295 15.5963 12.0005 15.5962C9.8714 15.5963 7.95163 16.3645 6.59773 17.595C5.62022 18.4835 4.0371 18.8623 3.26621 17.7896C2.0868 16.1485 1.39209 14.1355 1.39209 11.9604V10.7446C1.39223 5.22204 5.86952 0.744859 11.3921 0.744629H12.6079ZM12.0005 4.98779C9.65734 4.98802 7.7575 6.8878 7.75732 9.23096C7.75732 11.5743 9.65723 13.4739 12.0005 13.4741C14.3438 13.4739 16.2437 11.5743 16.2437 9.23096C16.2435 6.88778 14.3437 4.98799 12.0005 4.98779Z" fill="black"/>
</svg>
