<svg width="96" height="96" viewBox="0 0 96 96" fill="none" xmlns="http://www.w3.org/2000/svg">
<circle cx="48" cy="32" r="20" fill="black"/>
<path d="M17.3817 74.3282C17.5863 72.8958 17.6886 72.1797 17.7574 71.8181C19.3964 63.1975 25.9956 58.1619 34.7431 58.857C35.1099 58.8861 36.145 59.0165 38.215 59.2772C41.6191 59.7059 45.035 60 48 60C50.965 60 54.3809 59.7059 57.785 59.2772C59.855 59.0165 60.8901 58.8861 61.2569 58.857C70.0044 58.1619 76.6036 63.1975 78.2426 71.8181C78.3114 72.1797 78.4137 72.8958 78.6183 74.3282V74.3282C78.6889 74.8223 78.7242 75.0694 78.7427 75.2713C79.1567 79.7978 75.7208 83.7595 71.1812 83.9897C70.9787 84 70.7291 84 70.23 84H25.77C25.2709 84 25.0213 84 24.8188 83.9897C20.2792 83.7595 16.8433 79.7978 17.2573 75.2713C17.2758 75.0694 17.3111 74.8223 17.3817 74.3282V74.3282Z" fill="black"/>
</svg>
