<svg width="24" height="24" viewBox="0 0 24 24" fill="none" xmlns="http://www.w3.org/2000/svg">
<path d="M12.0444 1C16.9904 1 20.9999 5.04746 21 10.04V11.1391C21 13.106 20.3775 14.9258 19.3206 16.4095C18.6302 17.3788 17.2128 17.0365 16.3377 16.2332C15.1257 15.1206 13.4071 14.4259 11.5005 14.4258C9.59372 14.4259 7.87445 15.1204 6.66196 16.2328C5.78654 17.036 4.36876 17.3784 3.67838 16.4087C2.62215 14.9251 2 13.1054 2 11.1391V10.04C2.00013 5.04758 6.0098 1.00021 10.9556 1H12.0444ZM11.5005 4.83582C9.40202 4.83603 7.7006 6.55343 7.70044 8.67165C7.70044 10.79 9.40192 12.5073 11.5005 12.5075C13.599 12.5073 15.3005 10.79 15.3005 8.67165C15.3003 6.55342 13.5989 4.836 11.5005 4.83582Z" fill="black"/>
</svg>
