<svg width="24" height="24" viewBox="0 0 24 24" fill="none" xmlns="http://www.w3.org/2000/svg">
<g clip-path="url(#clip0_3019_193)">
<circle cx="12" cy="6" r="5" fill="black"/>
<path d="M4.34542 16.5821C4.39658 16.224 4.42216 16.0449 4.43934 15.9545C4.8491 13.7994 6.4989 12.5405 8.68577 12.7142C8.77748 12.7215 9.03624 12.7541 9.55376 12.8193C10.4048 12.9265 11.2587 13 12 13C12.7413 13 13.5952 12.9265 14.4462 12.8193C14.9638 12.7541 15.2225 12.7215 15.3142 12.7142C17.5011 12.5405 19.1509 13.7994 19.5607 15.9545C19.5778 16.0449 19.6034 16.224 19.6546 16.5821V16.5821C19.6722 16.7056 19.681 16.7673 19.6857 16.8178C19.7892 17.9495 18.9302 18.9399 17.7953 18.9974C17.7447 19 17.6823 19 17.5575 19H6.4425C6.31772 19 6.25533 19 6.2047 18.9974C5.0698 18.9399 4.21082 17.9495 4.31433 16.8178C4.31895 16.7673 4.32777 16.7056 4.34542 16.5821V16.5821Z" fill="black"/>
</g>
<defs>
<clipPath id="clip0_3019_193">
<rect width="24" height="24" fill="white"/>
</clipPath>
</defs>
</svg>
