<svg width="96" height="96" viewBox="0 0 96 96" fill="none" xmlns="http://www.w3.org/2000/svg">
<path d="M50.4346 2.98047C72.5255 2.98099 90.4346 20.8894 90.4346 42.9805V47.8447C90.4345 56.5444 87.656 64.5948 82.939 71.1584C79.8554 75.4491 73.523 73.9343 69.6131 70.3803C64.1978 65.4578 56.5194 62.385 48.0029 62.3848C39.4861 62.3848 31.8067 65.4576 26.391 70.3802C22.4809 73.9342 16.1484 75.449 13.065 71.1582C8.34831 64.5946 5.57041 56.5443 5.57031 47.8447V42.9805C5.57031 20.8891 23.4789 2.98047 45.5703 2.98047H50.4346ZM48.0029 19.9531C38.6292 19.9531 31.0303 27.552 31.0303 36.9258C31.0303 46.2996 38.6291 53.8984 48.0029 53.8984C57.3763 53.898 64.9756 46.2993 64.9756 36.9258C64.9755 27.5523 57.3763 19.9536 48.0029 19.9531Z" fill="black"/>
</svg>
