<svg width="24" height="24" viewBox="0 0 24 24" fill="none" xmlns="http://www.w3.org/2000/svg">
<g clip-path="url(#clip0_2379_9327)">
<path d="M16.5833 6.33333C16.5833 8.86464 14.5313 10.9167 12 10.9167C9.46866 10.9167 7.41664 8.86464 7.41664 6.33333C7.41664 3.80203 9.46866 1.75 12 1.75C14.5313 1.75 16.5833 3.80203 16.5833 6.33333Z" fill="black"/>
<path d="M4.98327 16.0335C5.03017 15.7053 5.05361 15.5412 5.06936 15.4583C5.44498 13.4828 6.9573 12.3288 8.96193 12.4881C9.04599 12.4947 9.28319 12.5246 9.75758 12.5844C10.5377 12.6826 11.3205 12.75 12 12.75C12.6795 12.75 13.4622 12.6826 14.2424 12.5844C14.7167 12.5246 14.9539 12.4947 15.038 12.4881C17.0426 12.3288 18.555 13.4828 18.9306 15.4583C18.9463 15.5412 18.9698 15.7053 19.0167 16.0335C19.0328 16.1468 19.0409 16.2034 19.0452 16.2497C19.14 17.287 18.3527 18.1949 17.3123 18.2476C17.2659 18.25 17.2087 18.25 17.0943 18.25H6.90559C6.79121 18.25 6.73402 18.25 6.68761 18.2476C5.64728 18.1949 4.85989 17.287 4.95478 16.2497C4.95901 16.2034 4.9671 16.1468 4.98327 16.0335Z" fill="black"/>
</g>
<defs>
<clipPath id="clip0_2379_9327">
<rect width="24" height="24" fill="white"/>
</clipPath>
</defs>
</svg>
