<svg width="20" height="20" viewBox="0 0 20 20" fill="none" xmlns="http://www.w3.org/2000/svg">
<path d="M10.5066 0.620514C15.1089 0.620514 18.8398 4.35157 18.8399 8.95382V9.96699C18.8399 11.7802 18.2607 13.4577 17.2772 14.8254C16.6347 15.719 15.3158 15.4034 14.5016 14.6629C13.3737 13.6372 11.7746 12.9969 10.0004 12.9968C8.22616 12.9969 6.62636 13.6371 5.49811 14.6625C4.68351 15.4029 3.36425 15.7186 2.72184 14.8247C1.739 13.4571 1.16007 11.7796 1.16007 9.96699V8.95382C1.16019 4.35169 4.89126 0.620706 9.49341 0.620514H10.5066ZM10.0004 4.15648C8.04778 4.15667 6.46458 5.73982 6.46443 7.69246C6.46443 9.64524 8.04769 11.2282 10.0004 11.2284C11.9532 11.2282 13.5364 9.64524 13.5364 7.69246C13.5362 5.73981 11.9531 4.15665 10.0004 4.15648Z" fill="black"/>
</svg>
