<svg width="24" height="24" viewBox="0 0 24 24" fill="none" xmlns="http://www.w3.org/2000/svg">
<g clip-path="url(#clip0_3019_193)">
<circle cx="12" cy="5.33333" r="4.58333" fill="black"/>
<path d="M4.98331 15.0335C5.0302 14.7053 5.05365 14.5412 5.0694 14.4583C5.44501 12.4828 6.95733 11.3288 8.96196 11.4881C9.04603 11.4947 9.28323 11.5246 9.75761 11.5844C10.5377 11.6826 11.3205 11.75 12 11.75C12.6795 11.75 13.4623 11.6826 14.2424 11.5844C14.7168 11.5246 14.954 11.4947 15.038 11.4881C17.0427 11.3288 18.555 12.4828 18.9306 14.4583C18.9464 14.5412 18.9698 14.7053 19.0167 15.0335V15.0335C19.0329 15.1468 19.041 15.2034 19.0452 15.2497C19.1401 16.287 18.3527 17.1949 17.3124 17.2476C17.266 17.25 17.2088 17.25 17.0944 17.25H6.90563C6.79125 17.25 6.73405 17.25 6.68765 17.2476C5.64732 17.1949 4.85993 16.287 4.95481 15.2497C4.95904 15.2034 4.96713 15.1468 4.98331 15.0335V15.0335Z" fill="black"/>
</g>
<defs>
<clipPath id="clip0_3019_193">
<rect width="24" height="24" fill="white"/>
</clipPath>
</defs>
</svg>
