<svg width="24" height="24" viewBox="0 0 24 24" fill="none" xmlns="http://www.w3.org/2000/svg">
<path d="M12.6079 0.744873C18.1307 0.744873 22.6078 5.22215 22.6079 10.7449V11.9607C22.6079 14.1365 21.9128 16.1496 20.7327 17.7907C19.9617 18.863 18.379 18.4843 17.4019 17.5957C16.0485 16.365 14.1295 15.5965 12.0005 15.5964C9.8714 15.5965 7.95163 16.3647 6.59773 17.5953C5.62022 18.4838 4.0371 18.8625 3.26621 17.7898C2.0868 16.1487 1.39209 14.1358 1.39209 11.9607V10.7449C1.39223 5.22229 5.86952 0.745103 11.3921 0.744873H12.6079ZM12.0005 4.98804C9.65734 4.98827 7.7575 6.88804 7.75732 9.2312C7.75732 11.5745 9.65724 13.4741 12.0005 13.4744C14.3438 13.4742 16.2437 11.5745 16.2437 9.2312C16.2435 6.88802 14.3437 4.98823 12.0005 4.98804Z" fill="white"/>
</svg>
