<svg width="24" height="24" viewBox="0 0 24 24" fill="none" xmlns="http://www.w3.org/2000/svg">
<g clip-path="url(#clip0_3019_192)">
<path d="M11.083 9C11.083 9.50627 11.4937 9.917 12 9.917H16.1037C18.0445 9.917 19.0149 9.917 19.5291 10.9018C20.0433 11.8866 19.6198 12.4946 18.7727 13.7106C17.2826 15.85 14.8051 17.25 12 17.25C7.44365 17.25 3.75 13.5564 3.75 9C3.75 6.19502 5.14996 3.71801 7.28924 2.22812C8.50544 1.3811 9.11353 0.957599 10.0983 1.47181C11.083 1.98601 11.083 2.95646 11.083 4.89736V9ZM12.917 4.64359C12.917 3.01559 12.917 2.20158 13.6707 1.65241C13.7737 1.57736 13.9796 1.46581 14.0987 1.42051C14.9704 1.08906 15.4803 1.4215 16.5002 2.0864C17.4628 2.71399 18.2862 3.53714 18.914 4.49958C19.5793 5.51953 19.912 6.0295 19.5802 6.90154C19.535 7.0204 19.4237 7.22592 19.3488 7.32873C18.7997 8.08301 17.9853 8.08301 16.3566 8.08301V8.08301C14.8479 8.08301 14.0935 8.08301 13.5861 7.66591C13.4941 7.59029 13.4097 7.50589 13.3341 7.4139C12.917 6.90651 12.917 6.1522 12.917 4.64359V4.64359Z" fill="black"/>
</g>
<defs>
<clipPath id="clip0_3019_192">
<rect width="24" height="24" fill="white"/>
</clipPath>
</defs>
</svg>
