<svg width="24" height="24" viewBox="0 0 24 24" fill="none" xmlns="http://www.w3.org/2000/svg">
<g clip-path="url(#clip0_2379_9324)">
<path d="M11.0833 9.9996C11.0833 10.5059 11.4937 10.9163 12 10.9163H16.1037C18.0444 10.9163 19.0148 10.9163 19.529 11.901C20.0432 12.8857 19.6198 13.4938 18.7728 14.7099C17.2828 16.8494 14.8052 18.2496 12 18.2496C7.44365 18.2496 3.75 14.5559 3.75 9.9996C3.75 7.19437 5.15017 4.71683 7.28974 3.22675C8.50582 2.37983 9.11387 1.95637 10.0986 2.47057C11.0833 2.98478 11.0833 3.95517 11.0833 5.89594V9.9996Z" fill="black"/>
<path d="M12.9167 5.64288C12.9167 4.01416 12.9167 3.1998 13.671 2.65066C13.7737 2.57587 13.9791 2.46462 14.0979 2.41941C14.9699 2.08752 15.48 2.42018 16.5002 3.08548C17.4629 3.71326 18.2863 4.53666 18.9141 5.49936C19.5794 6.5196 19.9121 7.02972 19.5802 7.90173C19.535 8.02051 19.4237 8.22586 19.3489 8.32861C18.7998 9.08293 17.9854 9.08293 16.3567 9.08293C14.8475 9.08293 14.0929 9.08293 13.5854 8.66551C13.4937 8.59008 13.4095 8.50591 13.3341 8.4142C12.9167 7.9067 12.9167 7.1521 12.9167 5.64288Z" fill="black"/>
</g>
<defs>
<clipPath id="clip0_2379_9324">
<rect width="24" height="24" fill="white"/>
</clipPath>
</defs>
</svg>
