<svg width="96" height="96" viewBox="0 0 96 96" fill="none" xmlns="http://www.w3.org/2000/svg">
<path d="M44 48.0005C44.0002 50.2094 45.791 52.0005 48 52.0005H65.9118C74.3803 52.0005 78.6145 52.0005 80.8582 56.2978C83.102 60.5951 81.254 63.2481 77.5582 68.5539C71.0546 77.8905 60.2412 84.0005 48 84.0005C28.1179 84.0005 12.0002 67.8825 12 48.0005C12 35.7592 18.11 24.9462 27.4466 18.4429C32.7525 14.7472 35.4055 12.8993 39.7028 15.1431C44 17.3868 44 21.621 44 30.0895V48.0005ZM52 28.9874C52 21.878 52 18.3232 55.2933 15.9271C55.7408 15.6014 56.6352 15.1169 57.1524 14.9199C60.9584 13.4702 63.1853 14.9224 67.6391 17.8268C71.8405 20.5666 75.4342 24.16 78.1742 28.3612C81.079 32.8151 82.5314 35.042 81.0813 38.8484C80.8844 39.3653 80.4002 40.2592 80.0748 40.7065C77.6787 44.0005 74.1236 44.0005 67.0133 44.0005V44.0005C60.4256 44.0005 57.1318 44.0005 54.9169 42.1781C54.5176 41.8495 54.151 41.4829 53.8224 41.0836C52 38.8687 52 35.575 52 28.9874V28.9874Z" fill="black"/>
</svg>
