<svg width="24" height="24" viewBox="0 0 24 24" fill="none" xmlns="http://www.w3.org/2000/svg">
<path d="M10.5 11.4999C10.5 12.6045 11.3954 13.4999 12.5 13.4999H19.5643C20.7874 13.4999 21.7352 14.6023 21.2779 15.7367C19.7979 19.4085 16.2017 21.9999 12 21.9999C6.47715 21.9999 2 17.5228 2 11.9999C2.00007 7.79825 4.59151 4.2021 8.26324 2.72202C9.39762 2.26475 10.5 3.21252 10.5 4.43559V11.4999ZM13.5 4.43559C13.5 3.21252 14.6024 2.26473 15.7367 2.72202C18.2539 3.73673 20.2631 5.74602 21.2779 8.26317C21.7352 9.39755 20.7874 10.4999 19.5643 10.4999H15.5C14.3954 10.4999 13.5 9.60449 13.5 8.49992V4.43559Z" fill="black"/>
</svg>
