<svg width="96" height="96" viewBox="0 0 96 96" fill="none" xmlns="http://www.w3.org/2000/svg">
<path d="M42 46C42 50.4182 45.5817 54 50 54H78.2583C83.1506 54 86.9417 58.4095 85.1126 62.947C79.1922 77.6341 64.807 88 48 88C25.9086 88 8 70.0914 8 48C8 31.1929 18.3658 16.8078 33.053 10.8873C37.5905 9.05827 42 12.8493 42 17.7416V46ZM54 17.7416C54 12.8493 58.4094 9.05822 62.9469 10.8873C73.016 14.9463 81.0537 22.984 85.1126 33.0531C86.9417 37.5906 83.1506 42 78.2583 42H62C57.5817 42 54 38.4182 54 34V17.7416Z" fill="black"/>
</svg>
