<svg width="20" height="20" viewBox="0 0 20 20" fill="none" xmlns="http://www.w3.org/2000/svg">
<path d="M8.75 9.58324C8.75 10.5037 9.49617 11.2499 10.4167 11.2499H16.3036C17.3228 11.2499 18.1127 12.1686 17.7316 13.1139C16.4983 16.1737 13.5014 18.3332 10 18.3332C5.39763 18.3332 1.66667 14.6023 1.66667 9.99991C1.66673 6.49853 3.82626 3.50174 6.88603 2.26834C7.83135 1.88728 8.75 2.67709 8.75 3.69632V9.58324ZM11.25 3.69632C11.25 2.67709 12.1687 1.88727 13.1139 2.26834C15.2116 3.11393 16.8859 4.78834 17.7316 6.88597C18.1127 7.83128 17.3228 8.74991 16.3036 8.74991H12.9167C11.9962 8.74991 11.25 8.00373 11.25 7.08326V3.69632Z" fill="black"/>
</svg>
