<svg width="24" height="24" viewBox="0 0 24 24" fill="none" xmlns="http://www.w3.org/2000/svg">
<path d="M10.8887 9.25518C10.8887 10.2803 11.7197 11.1113 12.7448 11.1113H19.301C20.4362 11.1113 21.3158 12.1344 20.8914 13.1873C19.5178 16.595 16.1803 19 12.2808 19C7.15514 19 3 14.8449 3 9.71922C3.00006 5.81976 5.40512 2.48225 8.81277 1.10862C9.86556 0.684241 10.8887 1.56384 10.8887 2.69895V9.25518ZM13.6729 2.69895C13.6729 1.56384 14.696 0.684222 15.7487 1.10862C18.0849 2.05035 19.9496 3.91513 20.8914 6.25124C21.3158 7.30404 20.4362 8.3271 19.301 8.3271H15.529C14.5039 8.3271 13.6729 7.49609 13.6729 6.47096V2.69895Z" fill="black"/>
</svg>
