<svg width="24" height="24" viewBox="0 0 24 24" fill="none" xmlns="http://www.w3.org/2000/svg">
<path d="M10.5 11.5002C10.5 12.6047 11.3954 13.5002 12.5 13.5002H19.5643C20.7874 13.5002 21.7351 14.6026 21.2778 15.737C19.7977 19.4087 16.2016 22.0002 12 22.0002C6.47723 22.0002 2.00013 17.5229 2 12.0002C2 7.79844 4.59147 4.20233 8.26323 2.72226C9.39762 2.26499 10.5 3.21276 10.5 4.43584V11.5002ZM13.5 4.43584C13.5 3.21276 14.6024 2.26498 15.7367 2.72226C18.2539 3.73697 20.2632 5.74625 21.2779 8.26344C21.7352 9.39782 20.7874 10.5002 19.5643 10.5002H15.5C14.3954 10.5002 13.5 9.60473 13.5 8.50016V4.43584Z" fill="white"/>
</svg>
