<svg width="24" height="24" viewBox="0 0 24 24" fill="none" xmlns="http://www.w3.org/2000/svg">
<g clip-path="url(#clip0_3019_192)">
<path d="M11 10C11 10.5523 11.4477 11 12 11H16.4767C18.5939 11 19.6525 11 20.2135 12.0743C20.7744 13.1485 20.3125 13.8118 19.3886 15.1385C17.763 17.4725 15.0602 19 12 19C7.02944 19 3 14.9706 3 10C3 6.93975 4.52746 4.23698 6.86153 2.61144C8.18817 1.68752 8.85149 1.22556 9.92574 1.78652C11 2.34747 11 3.40607 11 5.52327V10ZM13 5.24721C13 3.47043 13 2.58204 13.8229 1.98298C13.935 1.90138 14.159 1.78002 14.2886 1.7307C15.2399 1.36864 15.7964 1.73154 16.9094 2.45733C17.9596 3.14218 18.8578 4.04043 19.5427 5.09064C20.2685 6.20364 20.6314 6.76013 20.2693 7.71142C20.22 7.84099 20.0986 8.06501 20.017 8.1771C19.418 9 18.5296 9 16.7528 9V9C15.1064 9 14.2832 9 13.7295 8.54463C13.6295 8.46234 13.5377 8.37052 13.4554 8.27047C13 7.71684 13 6.89363 13 5.24721V5.24721Z" fill="black"/>
</g>
<defs>
<clipPath id="clip0_3019_192">
<rect width="24" height="24" fill="white"/>
</clipPath>
</defs>
</svg>
