<svg width="24" height="24" viewBox="0 0 24 24" fill="none" xmlns="http://www.w3.org/2000/svg">
<path d="M12 2C15.2435 2 18.1251 3.54516 19.9521 5.93848L12.1406 13.8584L9.07324 10.7178L8.95996 10.6133C8.37655 10.126 7.5077 10.1499 6.95215 10.6924C6.39662 11.235 6.35182 12.1035 6.8252 12.6982L6.92676 12.8135L10.3516 16.3193L10.541 16.4951C11.5267 17.3167 12.9978 17.2617 13.9189 16.3281L21.4404 8.70215C21.8012 9.73497 22 10.8441 22 12C22 17.5228 17.5228 22 12 22C6.47715 22 2 17.5228 2 12C2 6.47715 6.47715 2 12 2Z" fill="black"/>
</svg>
