<svg width="24" height="24" viewBox="0 0 24 24" fill="none" xmlns="http://www.w3.org/2000/svg">
<g clip-path="url(#clip0_3019_191)">
<path d="M12.0002 0.750107C13.3598 0.750113 14.5198 0.816792 15.4884 0.914169C17.9843 1.1653 19.8351 3.01589 20.0861 5.51183C20.1835 6.48047 20.2502 7.64043 20.2502 9.00011C20.2502 10.3597 20.1835 11.5198 20.0861 12.4884C19.835 14.9842 17.9843 16.8349 15.4884 17.086C14.5198 17.1834 13.3598 17.2501 12.0002 17.2501C10.6405 17.2501 9.48053 17.1834 8.51189 17.086C6.0159 16.8351 4.16534 14.9843 3.91423 12.4884C3.81685 11.5198 3.75017 10.3597 3.75017 9.00011C3.75017 7.64043 3.81685 6.48047 3.91423 5.51183C4.16525 3.01579 6.01584 1.16516 8.51189 0.914169C9.48053 0.816788 10.6405 0.750107 12.0002 0.750107ZM17.1593 4.62022C16.7657 4.30227 16.1885 4.36347 15.8703 4.75694L10.5793 11.298L8.54997 9.26866L8.47966 9.20518C8.11962 8.91212 7.58849 8.93327 7.2531 9.26866C6.91793 9.60426 6.89717 10.1353 7.1906 10.4952L7.2531 10.5646L9.28337 12.5939C10.0532 13.3637 11.3203 13.2976 12.0051 12.4513L17.2961 5.90929C17.6141 5.51566 17.5528 4.9385 17.1593 4.62022Z" fill="black"/>
</g>
<defs>
<clipPath id="clip0_3019_191">
<rect width="24" height="24" fill="white"/>
</clipPath>
</defs>
</svg>
