<svg width="96" height="96" viewBox="0 0 96 96" fill="none" xmlns="http://www.w3.org/2000/svg">
<path d="M47.9998 12.0004C53.933 12.0004 58.9936 12.2913 63.2205 12.7162C74.1126 13.8113 82.1889 21.8876 83.2839 32.7797C83.7089 37.0065 83.9998 42.0673 83.9998 48.0004C83.9997 53.9335 83.7089 58.9944 83.2839 63.2211C82.1887 74.1131 74.1125 82.1886 63.2205 83.2836C58.9936 83.7086 53.933 84.0004 47.9998 84.0004C42.0666 84.0004 37.0059 83.7086 32.7791 83.2836C21.8872 82.1885 13.8108 74.113 12.7156 63.2211C12.2906 58.9944 11.9998 53.9335 11.9998 48.0004C11.9998 42.0673 12.2906 37.0065 12.7156 32.7797C13.8106 21.8877 21.887 13.8114 32.7791 12.7162C37.0059 12.2913 42.0666 12.0004 47.9998 12.0004ZM70.5154 28.8901C68.8514 27.5446 66.4365 27.7528 65.0242 29.3286L64.8904 29.4848L41.8035 58.0287L32.946 49.1723L32.7976 49.0297C31.2274 47.611 28.8031 47.659 27.2898 49.1723C25.7278 50.7344 25.7277 53.2665 27.2898 54.8286L36.1462 63.686C39.5056 67.0449 45.0355 66.7535 48.0232 63.06L71.1101 34.5161C72.4993 32.7986 72.2326 30.2794 70.5154 28.8901Z" fill="black"/>
</svg>
