<svg width="24" height="24" viewBox="0 0 24 24" fill="none" xmlns="http://www.w3.org/2000/svg">
<g clip-path="url(#clip0_2379_9321)">
<path fill-rule="evenodd" clip-rule="evenodd" d="M12.0002 1.75C13.3598 1.75001 14.5193 1.81645 15.4879 1.91382C17.9839 2.16476 19.8354 4.01551 20.0864 6.51147C20.1838 7.48013 20.2502 8.64029 20.2502 10C20.2502 11.3595 20.1838 12.5191 20.0864 13.4876C19.8355 15.9838 17.984 17.8352 15.4879 18.0862C14.5193 18.1835 13.3597 18.25 12.0002 18.25C10.6405 18.25 9.48038 18.1836 8.51172 18.0862C6.01572 17.8351 4.165 15.9837 3.91406 13.4876C3.8167 12.5191 3.75025 11.3595 3.75024 10C3.75024 8.64029 3.81668 7.48013 3.91406 6.51147C4.16514 4.01562 6.01585 2.16487 8.51172 1.91382C9.48038 1.81643 10.6405 1.75 12.0002 1.75ZM17.1601 5.62077C16.7665 5.30244 16.1894 5.36334 15.871 5.75684L10.5796 12.2979L8.55021 10.2686L8.48039 10.2059C8.12034 9.91224 7.58959 9.93295 7.25399 10.2686C6.89603 10.6265 6.89602 11.2068 7.25399 11.5648L9.28337 13.5942C10.0532 14.3639 11.3209 14.2974 12.0056 13.4509L17.2961 6.90983C17.6144 6.51629 17.5535 5.93918 17.1601 5.62077Z" fill="black"/>
</g>
<defs>
<clipPath id="clip0_2379_9321">
<rect width="24" height="24" fill="white"/>
</clipPath>
</defs>
</svg>
