<svg width="20" height="20" viewBox="0 0 20 20" fill="none" xmlns="http://www.w3.org/2000/svg">
<path d="M10 1.66666C12.7029 1.66666 15.1043 2.95429 16.6268 4.94872L10.1172 11.5487L7.56103 8.93149L7.46663 8.84441C6.98046 8.43832 6.25642 8.45824 5.79346 8.91032C5.33052 9.36249 5.29318 10.0862 5.68767 10.5818L5.7723 10.6779L8.62633 13.5994L8.78417 13.7459C9.60558 14.4306 10.8315 14.3847 11.5991 13.6067L17.867 7.25178C18.1677 8.11246 18.3333 9.03674 18.3333 9.99999C18.3333 14.6023 14.6023 18.3333 10 18.3333C5.39763 18.3333 1.66667 14.6023 1.66667 9.99999C1.66667 5.39761 5.39763 1.66666 10 1.66666Z" fill="black"/>
</svg>
