<svg width="96" height="96" viewBox="0 0 96 96" fill="none" xmlns="http://www.w3.org/2000/svg">
<path d="M48 8C60.975 8 72.5052 14.1793 79.8135 23.7539L48.5645 55.4346L36.292 42.8701L36.0713 42.6543C33.7412 40.4985 30.1042 40.5266 27.8076 42.7695C25.5111 45.0127 25.3976 48.6481 27.498 51.0283L27.708 51.2549L41.4043 65.2773C45.3142 69.2803 51.7482 69.2962 55.6777 65.3125L85.7695 34.8047C87.2128 38.9363 88 43.3761 88 48C88 70.0914 70.0914 88 48 88C25.9086 88 8 70.0914 8 48C8 25.9086 25.9086 8 48 8Z" fill="black"/>
</svg>
