<svg width="24" height="24" viewBox="0 0 24 24" fill="none" xmlns="http://www.w3.org/2000/svg">
<path d="M12 1C14.9191 1 17.5126 2.39064 19.1569 4.54463L12.1265 11.6726L9.36592 8.84602L9.26396 8.75197C8.73889 8.3134 7.95693 8.33491 7.45693 8.82316C6.95696 9.3115 6.91664 10.0931 7.34268 10.6284L7.43408 10.7322L10.5164 13.8874L10.6869 14.0456C11.574 14.785 12.898 14.7355 13.727 13.8953L20.4964 7.03194C20.8211 7.96147 21 8.95969 21 10C21 14.9705 16.9705 19 12 19C7.02943 19 3 14.9705 3 10C3 5.02943 7.02943 1 12 1Z" fill="black"/>
</svg>
