<svg width="24" height="24" viewBox="0 0 24 24" fill="none" xmlns="http://www.w3.org/2000/svg">
<g clip-path="url(#clip0_3019_191)">
<path d="M12.0002 1.00011C13.4833 1.00012 14.7483 1.07261 15.8049 1.17883C18.5278 1.45258 20.5476 3.47158 20.8215 6.19445C20.9277 7.25117 21.0002 8.51679 21.0002 10.0001C21.0002 11.4832 20.9277 12.7482 20.8215 13.8048C20.5477 16.5278 18.5279 18.5476 15.8049 18.8214C14.7483 18.9276 13.4833 19.0001 12.0002 19.0001C10.5169 19.0001 9.25124 18.9276 8.19452 18.8214C5.47162 18.5475 3.45265 16.5278 3.17889 13.8048C3.07268 12.7482 3.00019 11.4832 3.00018 10.0001C3.00018 8.51679 3.07266 7.25117 3.17889 6.19445C3.4528 3.4717 5.47175 1.4527 8.19452 1.17883C9.25124 1.07259 10.5169 1.00011 12.0002 1.00011ZM17.6291 5.22277C17.1997 4.8755 16.5702 4.94194 16.2228 5.37121L10.4504 12.507L8.23651 10.2931L8.16034 10.2247C7.76757 9.90438 7.18856 9.92697 6.82245 10.2931C6.43195 10.6836 6.43193 11.3166 6.82245 11.7071L9.03632 13.921C9.87617 14.7608 11.2591 14.6882 12.006 13.7648L17.7775 6.62902C18.1248 6.1997 18.0583 5.57013 17.6291 5.22277Z" fill="black"/>
</g>
<defs>
<clipPath id="clip0_3019_191">
<rect width="24" height="24" fill="white"/>
</clipPath>
</defs>
</svg>
